<svg width="20" height="22" viewBox="0 0 20 22" fill="none" xmlns="http://www.w3.org/2000/svg">
<path opacity="0.7" d="M18.5057 1.51439C16.5011 -0.504795 13.2938 -0.504795 11.2893 1.51439L1.77677 11.1331C1.631 11.2799 1.631 11.5002 1.77677 11.6471C1.92255 11.794 2.14122 11.7939 2.28704 11.6471L11.7996 2.02838C13.5126 0.302869 16.2825 0.302869 17.9955 2.02838C19.7085 3.75389 19.7085 6.54403 17.9955 8.26954L6.00453 20.348C4.8018 21.5595 2.83369 21.5595 1.63096 20.348C0.428228 19.1365 0.428228 17.154 1.63096 15.9425L11.2892 6.17688C12.0182 5.47935 13.148 5.44261 13.877 6.17688C14.5694 6.91115 14.5694 8.08592 13.877 8.78349L6.66057 16.0893C6.51479 16.2361 6.51479 16.4564 6.66057 16.6033C6.80634 16.7501 7.02502 16.7501 7.17083 16.6033L14.3872 9.33418C15.3713 8.34294 15.3713 6.69087 14.3872 5.69963C13.4032 4.70839 11.7631 4.70839 10.779 5.69963L1.12074 15.4285C-0.373579 16.897 -0.373579 19.3567 1.12074 20.8619C1.84968 21.6329 2.83373 22 3.81779 22C4.80184 22 5.78589 21.6329 6.51484 20.8619L18.5057 8.78349C19.4533 7.82895 20 6.50729 20 5.14894C20 3.79058 19.4533 2.46893 18.5057 1.51439Z" fill="black"/>
</svg>
