<svg width="43" height="11" viewBox="0 0 43 11" fill="none" xmlns="http://www.w3.org/2000/svg">
<path d="M10.026 6.162H2.106C2.178 7.146 2.556 7.944 3.24 8.556C3.924 9.156 4.788 9.456 5.832 9.456C6.42 9.456 6.96 9.354 7.452 9.15C7.944 8.934 8.37 8.622 8.73 8.214L9.45 9.042C9.03 9.546 8.502 9.93 7.866 10.194C7.242 10.458 6.552 10.59 5.796 10.59C4.824 10.59 3.96 10.386 3.204 9.978C2.46 9.558 1.878 8.982 1.458 8.25C1.038 7.518 0.828 6.69 0.828 5.766C0.828 4.842 1.026 4.014 1.422 3.282C1.83 2.55 2.382 1.98 3.078 1.572C3.786 1.164 4.578 0.959999 5.454 0.959999C6.33 0.959999 7.116 1.164 7.812 1.572C8.508 1.98 9.054 2.55 9.45 3.282C9.846 4.002 10.044 4.83 10.044 5.766L10.026 6.162ZM5.454 2.058C4.542 2.058 3.774 2.352 3.15 2.94C2.538 3.516 2.19 4.272 2.106 5.208H8.82C8.736 4.272 8.382 3.516 7.758 2.94C7.146 2.352 6.378 2.058 5.454 2.058ZM13.8693 2.886C14.1693 2.25 14.6133 1.77 15.2013 1.446C15.8013 1.122 16.5393 0.959999 17.4153 0.959999V2.202L17.1093 2.184C16.1133 2.184 15.3333 2.49 14.7693 3.102C14.2053 3.714 13.9233 4.572 13.9233 5.676V10.5H12.6453V1.032H13.8693V2.886ZM20.9533 2.886C21.2533 2.25 21.6973 1.77 22.2853 1.446C22.8853 1.122 23.6233 0.959999 24.4993 0.959999V2.202L24.1933 2.184C23.1973 2.184 22.4173 2.49 21.8533 3.102C21.2893 3.714 21.0073 4.572 21.0073 5.676V10.5H19.7293V1.032H20.9533V2.886ZM30.5954 10.59C29.6834 10.59 28.8614 10.386 28.1294 9.978C27.3974 9.558 26.8214 8.982 26.4014 8.25C25.9814 7.518 25.7714 6.69 25.7714 5.766C25.7714 4.842 25.9814 4.014 26.4014 3.282C26.8214 2.55 27.3974 1.98 28.1294 1.572C28.8614 1.164 29.6834 0.959999 30.5954 0.959999C31.5074 0.959999 32.3294 1.164 33.0614 1.572C33.7934 1.98 34.3634 2.55 34.7714 3.282C35.1914 4.014 35.4014 4.842 35.4014 5.766C35.4014 6.69 35.1914 7.518 34.7714 8.25C34.3634 8.982 33.7934 9.558 33.0614 9.978C32.3294 10.386 31.5074 10.59 30.5954 10.59ZM30.5954 9.456C31.2674 9.456 31.8674 9.306 32.3954 9.006C32.9354 8.694 33.3554 8.256 33.6554 7.692C33.9554 7.128 34.1054 6.486 34.1054 5.766C34.1054 5.046 33.9554 4.404 33.6554 3.84C33.3554 3.276 32.9354 2.844 32.3954 2.544C31.8674 2.232 31.2674 2.076 30.5954 2.076C29.9234 2.076 29.3174 2.232 28.7774 2.544C28.2494 2.844 27.8294 3.276 27.5174 3.84C27.2174 4.404 27.0674 5.046 27.0674 5.766C27.0674 6.486 27.2174 7.128 27.5174 7.692C27.8294 8.256 28.2494 8.694 28.7774 9.006C29.3174 9.306 29.9234 9.456 30.5954 9.456ZM39.2345 2.886C39.5345 2.25 39.9785 1.77 40.5665 1.446C41.1665 1.122 41.9045 0.959999 42.7805 0.959999V2.202L42.4745 2.184C41.4785 2.184 40.6985 2.49 40.1345 3.102C39.5705 3.714 39.2885 4.572 39.2885 5.676V10.5H38.0105V1.032H39.2345V2.886Z" fill="#D01A1A"/>
</svg>
