<svg width="188" height="52" viewBox="0 0 188 52" fill="none" xmlns="http://www.w3.org/2000/svg">
<path d="M15.5025 38.82H33.555L35.005 51H0.1325V1.265H15.5025V38.82ZM63.4935 0.685C67.4569 0.685 71.0819 1.67583 74.3685 3.6575C77.7035 5.59083 80.3377 8.225 82.271 11.56C84.2527 14.8467 85.2435 18.4717 85.2435 22.435V29.975C85.2435 33.9383 84.2527 37.5875 82.271 40.9225C80.3377 44.2092 77.7035 46.8433 74.3685 48.825C71.0819 50.7583 67.4569 51.725 63.4935 51.725H59.4335C55.4702 51.725 51.821 50.7583 48.486 48.825C45.1994 46.8433 42.5652 44.2092 40.5835 40.9225C38.6502 37.5875 37.6835 33.9383 37.6835 29.975V22.435C37.6835 18.4717 38.6502 14.8467 40.5835 11.56C42.5652 8.225 45.1994 5.59083 48.486 3.6575C51.821 1.67583 55.4702 0.685 59.4335 0.685H63.4935ZM61.3185 11.85C59.2885 11.85 57.5727 12.5508 56.171 13.9525C54.7694 15.3542 54.0685 17.07 54.0685 19.1V33.0925C54.0685 35.1225 54.7694 36.8383 56.171 38.24C57.5727 39.6417 59.2885 40.3425 61.3185 40.3425H61.681C63.711 40.3425 65.4269 39.6417 66.8285 38.24C68.2302 36.8383 68.931 35.1225 68.931 33.0925V19.1C68.931 17.07 68.2302 15.3542 66.8285 13.9525C65.4269 12.5508 63.711 11.85 61.681 11.85H61.3185ZM114.88 0.539997C118.456 0.539997 121.791 1.31333 124.885 2.86C127.978 4.40666 130.443 6.5575 132.28 9.3125C134.116 12.0675 135.035 15.185 135.035 18.665V19.1725H120.97C120.97 16.7075 120.293 14.8708 118.94 13.6625C117.586 12.4542 115.846 11.85 113.72 11.85H113.357C111.327 11.85 109.611 12.5508 108.21 13.9525C106.808 15.3542 106.107 17.07 106.107 19.1V33.0925C106.107 35.1225 106.808 36.8383 108.21 38.24C109.611 39.6417 111.327 40.3425 113.357 40.3425H114.662C116.692 40.3425 118.239 39.7142 119.302 38.4575C120.414 37.1525 120.97 35.34 120.97 33.02H112.56V23.16H135.035V40.56C135.035 44.3783 135.107 46.8917 135.252 48.1L135.542 51H127.422L125.392 45.7075C123.845 47.4475 121.743 48.8975 119.085 50.0575C116.475 51.1692 113.84 51.725 111.182 51.725H110.457C106.542 51.725 102.99 50.7583 99.7996 48.825C96.6579 46.8917 94.1929 44.2575 92.4046 40.9225C90.6163 37.5875 89.7221 33.9383 89.7221 29.975V22.29C89.7221 18.2783 90.6888 14.6292 92.6221 11.3425C94.6038 8.0075 97.3588 5.37333 100.887 3.44C104.415 1.50666 108.403 0.539997 112.85 0.539997H114.88ZM166.225 0.685C170.189 0.685 173.814 1.67583 177.1 3.6575C180.435 5.59083 183.07 8.225 185.003 11.56C186.985 14.8467 187.975 18.4717 187.975 22.435V29.975C187.975 33.9383 186.985 37.5875 185.003 40.9225C183.07 44.2092 180.435 46.8433 177.1 48.825C173.814 50.7583 170.189 51.725 166.225 51.725H162.165C158.202 51.725 154.553 50.7583 151.218 48.825C147.931 46.8433 145.297 44.2092 143.315 40.9225C141.382 37.5875 140.415 33.9383 140.415 29.975V22.435C140.415 18.4717 141.382 14.8467 143.315 11.56C145.297 8.225 147.931 5.59083 151.218 3.6575C154.553 1.67583 158.202 0.685 162.165 0.685H166.225ZM164.05 11.85C162.02 11.85 160.305 12.5508 158.903 13.9525C157.501 15.3542 156.8 17.07 156.8 19.1V33.0925C156.8 35.1225 157.501 36.8383 158.903 38.24C160.305 39.6417 162.02 40.3425 164.05 40.3425H164.413C166.443 40.3425 168.159 39.6417 169.56 38.24C170.962 36.8383 171.663 35.1225 171.663 33.0925V19.1C171.663 17.07 170.962 15.3542 169.56 13.9525C168.159 12.5508 166.443 11.85 164.413 11.85H164.05Z" fill="black"/>
</svg>
