<svg width="17" height="18" viewBox="0 0 17 18" fill="none" xmlns="http://www.w3.org/2000/svg">
<path opacity="0.7" d="M13.4157 12.952L17 16.7462L15.8158 18L12.2324 14.2049C10.8991 15.3366 9.24062 15.9522 7.53175 15.9496C3.37422 15.9496 0 12.3769 0 7.9748C0 3.57271 3.37422 0 7.53175 0C11.6893 0 15.0635 3.57271 15.0635 7.9748C15.0659 9.78419 14.4846 11.5402 13.4157 12.952ZM11.737 12.2945C12.7991 11.138 13.3922 9.58786 13.3898 7.9748C13.3898 4.54741 10.7679 1.77218 7.53175 1.77218C4.29477 1.77218 1.67372 4.54741 1.67372 7.9748C1.67372 11.4013 4.29477 14.1774 7.53175 14.1774C9.0552 14.18 10.5193 13.5519 11.6115 12.4274L11.737 12.2945Z" fill="white"/>
</svg>
