<svg width="30" height="30" viewBox="0 0 30 30" fill="none" xmlns="http://www.w3.org/2000/svg">
<path d="M11.8127 0.254093C4.57617 1.90931 -0.383998 8.48219 0.0233583 15.8947C0.239018 19.7089 1.70071 22.9713 4.40843 25.682C6.13371 27.4092 7.88294 28.4887 10.3031 29.3763C11.8367 29.928 12.4118 30 15.0476 30C17.6835 30 18.2585 29.928 19.7921 29.3763C22.2123 28.4887 23.9615 27.4092 25.6868 25.682C27.4121 23.9549 28.4904 22.2037 29.377 19.7808C29.9281 18.2456 30 17.6698 30 15.0311C30 12.3923 29.9281 11.8166 29.377 10.2813C28.4904 7.85849 27.4121 6.10732 25.6868 4.38014C22.8832 1.57347 19.6244 0.158139 15.6467 0.0142068C14.161 -0.0337705 12.6993 0.0381954 11.8127 0.254093ZM20.7985 8.84202C21.7091 9.41775 22.2363 9.41775 23.2666 8.89C24.0814 8.45821 24.1053 8.77006 23.2666 9.77758L22.6197 10.5452L23.5542 10.3773L24.5127 10.1854L23.65 11.1209C22.9072 11.8886 22.7395 12.2724 22.5957 13.4718C21.8529 19.8048 16.5093 24.0508 10.351 23.1632C9.4884 23.0433 8.21841 22.7075 7.54747 22.4196L6.34936 21.8918L8.12256 21.508C9.10501 21.2921 10.2552 20.9323 10.6865 20.6684L11.4533 20.1886L10.2552 19.6609C9.48841 19.3251 8.88935 18.8693 8.57784 18.3415L8.0986 17.5499L8.84143 17.43L9.56029 17.31L8.69765 16.8542C7.78709 16.3505 7.06823 15.3669 6.80464 14.2155C6.68483 13.7117 6.7088 13.5678 6.94842 13.6398C7.11615 13.7117 7.52351 13.8556 7.85898 13.9516L8.45803 14.1195L7.95483 13.5678C6.92446 12.4163 6.56502 10.929 7.0203 9.53769C7.16408 9.05792 7.23596 9.08191 8.43407 10.1134C9.91972 11.3608 12.3159 12.5363 13.9214 12.7522L15.0476 12.9201V12.0325C15.0476 10.8331 16.0061 9.20185 17.0125 8.72208C18.1627 8.14635 19.7921 8.21832 20.7985 8.84202Z" fill="white"/>
</svg>
